<?xml version="1.0" encoding="UTF-8" standalone="no"?>
<!-- Created with Inkscape (http://www.inkscape.org/) -->

<svg
   xmlns:dc="http://purl.org/dc/elements/1.1/"
   xmlns:cc="http://creativecommons.org/ns#"
   xmlns:rdf="http://www.w3.org/1999/02/22-rdf-syntax-ns#"
   xmlns:svg="http://www.w3.org/2000/svg"
   xmlns="http://www.w3.org/2000/svg"
   xmlns:sodipodi="http://sodipodi.sourceforge.net/DTD/sodipodi-0.dtd"
   xmlns:inkscape="http://www.inkscape.org/namespaces/inkscape"
   version="1.1"
   width="80"
   height="80"
   viewBox="0 0 80 80"
   id="Layer_1"
   xml:space="preserve"
   inkscape:version="0.48.3.1 r9886"
   sodipodi:docname="checkmark.svg"><sodipodi:namedview
     pagecolor="#ffffff"
     bordercolor="#666666"
     borderopacity="1"
     objecttolerance="10"
     gridtolerance="10"
     guidetolerance="10"
     inkscape:pageopacity="0"
     inkscape:pageshadow="2"
     inkscape:window-width="1920"
     inkscape:window-height="1017"
     id="namedview4620"
     showgrid="false"
     inkscape:zoom="5.9599"
     inkscape:cx="19.494162"
     inkscape:cy="53.399376"
     inkscape:window-x="1592"
     inkscape:window-y="-8"
     inkscape:window-maximized="1"
     inkscape:current-layer="Layer_1" /><metadata
     id="metadata3777"><rdf:RDF><cc:Work
         rdf:about=""><dc:format>image/svg+xml</dc:format><dc:type
           rdf:resource="http://purl.org/dc/dcmitype/StillImage" /><dc:title /></cc:Work></rdf:RDF></metadata><defs
     id="defs3775" /><path
     d="m 376.90023,-147.84102 a 152.94916,151.86441 0 1 1 -0.005,-0.18878"
     id="path4547"
     style="fill:#ffffff;fill-opacity:1"
     inkscape:connector-curvature="0" /><path
     sodipodi:type="arc"
     style="fill:#ffffff;fill-opacity:1"
     id="path3001"
     sodipodi:cx="43.960468"
     sodipodi:cy="40.066444"
     sodipodi:rx="27.013876"
     sodipodi:ry="27.013876"
     d="m 70.965702,39.383198 a 27.013876,27.013876 0 1 1 -8.7e-4,-0.03358"
     sodipodi:start="6.2578902"
     sodipodi:end="12.539832"
     sodipodi:open="true"
     transform="translate(-3.9604683,-0.06644467)" /><g
     transform="matrix(0.17372881,0,0,0.17372881,-4.4745754,-4.4745754)"
     id="g3769"
     style="fill:#128700;fill-opacity:1"><path
       d="M 256,32 C 132.3,32 32,132.3 32,256 32,379.7 132.3,480 256,480 379.7,480 480,379.7 480,256 480,132.3 379.7,32 256,32 z M 370.9,181.1 231.8,359.6 c -1.1,1.1 -2.9,3.5 -5.1,3.5 -2.3,0 -3.8,-1.6 -5.1,-2.9 -1.3,-1.3 -78.9,-75.9 -78.9,-75.9 l -1.5,-1.5 c -0.6,-0.9 -1.1,-2 -1.1,-3.2 0,-1.2 0.5,-2.3 1.1,-3.2 0.4,-0.4 0.7,-0.7 1.1,-1.2 7.7,-8.1 23.3,-24.5 24.3,-25.5 1.3,-1.3 2.4,-3 4.8,-3 2.5,0 4.1,2.1 5.3,3.3 1.2,1.2 45,43.3 45,43.3 L 333,150.3 c 1,-0.8 2.2,-1.4 3.5,-1.4 1.3,0 2.5,0.5 3.5,1.3 l 30.6,24.1 c 0.8,1 1.3,2.2 1.3,3.5 0.1,1.3 -0.4,2.4 -1,3.3 z"
       id="path3771"
       style="fill:#128700;fill-opacity:1"
       inkscape:connector-curvature="0" /></g></svg>