<?xml version="1.0" encoding="UTF-8" standalone="no"?>
<!-- Created with Inkscape (http://www.inkscape.org/) -->

<svg
   xmlns:dc="http://purl.org/dc/elements/1.1/"
   xmlns:cc="http://creativecommons.org/ns#"
   xmlns:rdf="http://www.w3.org/1999/02/22-rdf-syntax-ns#"
   xmlns:svg="http://www.w3.org/2000/svg"
   xmlns="http://www.w3.org/2000/svg"
   xmlns:sodipodi="http://sodipodi.sourceforge.net/DTD/sodipodi-0.dtd"
   xmlns:inkscape="http://www.inkscape.org/namespaces/inkscape"
   width="291.45294"
   height="292.84381"
   id="svg3811"
   version="1.1"
   inkscape:version="0.48.4 r9939"
   sodipodi:docname="New document 5">
  <defs
     id="defs3813" />
  <sodipodi:namedview
     id="base"
     pagecolor="#ffffff"
     bordercolor="#666666"
     borderopacity="1.0"
     inkscape:pageopacity="0.0"
     inkscape:pageshadow="2"
     inkscape:zoom="0.35"
     inkscape:cx="143.58361"
     inkscape:cy="-10.720964"
     inkscape:document-units="px"
     inkscape:current-layer="layer1"
     showgrid="false"
     fit-margin-top="0"
     fit-margin-left="0"
     fit-margin-right="0"
     fit-margin-bottom="0"
     inkscape:window-width="812"
     inkscape:window-height="612"
     inkscape:window-x="52"
     inkscape:window-y="52"
     inkscape:window-maximized="0" />
  <metadata
     id="metadata3816">
    <rdf:RDF>
      <cc:Work
         rdf:about="">
        <dc:format>image/svg+xml</dc:format>
        <dc:type
           rdf:resource="http://purl.org/dc/dcmitype/StillImage" />
        <dc:title></dc:title>
      </cc:Work>
    </rdf:RDF>
  </metadata>
  <g
     inkscape:label="Layer 1"
     inkscape:groupmode="layer"
     id="layer1"
     transform="translate(-231.41639,-228.79743)">
    <path
       style="fill:#f1af21"
       d="m 368.88514,228.79748 c -7.24884,0 -23.89481,2.99038 -25.06251,4.5 -0.64316,0.83149 -1.87595,5.06573 -2.71875,9.40625 -2.10108,10.82083 -6.98813,18.64513 -14.3125,22.9375 -8.06148,4.72433 -17.65158,4.13949 -30.43749,-1.84375 -6.49244,-3.03819 -9.72977,-3.90405 -11.3125,-3.03125 -1.2211,0.67338 -6.07115,5.15399 -10.78125,9.9375 l -8.5625,8.6875 3.75,8.34375 c 10.8999,24.28822 1.62651,41.73257 -23.78125,44.71875 -4.1585,0.48875 -8.17732,1.61529 -8.9375,2.53125 -1.47029,1.77159 -5.3125,20.13524 -5.3125,25.375 0,2.36463 1.69164,4.10006 7,7.15625 13.91356,8.01044 19.6875,15.90244 19.6875,26.875 0,7.79504 -2.74109,13.34641 -11.15625,22.5 l -7.40625,8.0625 1.9375,5.75 c 1.07756,3.16154 3.96391,9.05416 6.40625,13.09375 3.56397,5.89473 5.0987,7.28893 7.6875,7.09375 23.80612,-1.79486 32.64708,1.2972 38.875,13.5 2.27705,4.46157 2.58933,7.24687 2.1875,19.25 l -0.46875,14.0625 10.6875,5.75 c 5.87577,3.15842 11.83194,5.7363 13.21874,5.75 1.3868,0.0137 5.17927,-2.43417 8.4375,-5.4375 8.38637,-7.73028 16.41201,-11.00897 25.1875,-10.28125 10.80826,0.89631 16.51499,6.0944 26.31251,23.84375 l 2.40626,4.3125 9.625,-0.8125 c 5.29934,-0.43896 11.85586,-1.43057 14.5625,-2.21875 4.63319,-1.34923 4.99435,-1.90108 6.46875,-9.09375 3.07783,-15.01462 7.26557,-21.47841 16.65625,-25.8125 8.32395,-3.84174 15.9421,-3.23296 27.1875,2.15625 5.36404,2.57065 10.05182,4.6875 10.4375,4.6875 1.41978,0 20.4375,-19.19263 20.4375,-20.625 0,-0.81516 -1.78548,-5.69235 -3.96875,-10.8125 -4.31299,-10.1134 -4.87681,-15.11749 -2.5,-22.125 3.6433,-10.74144 12.92491,-17.53657 26.3125,-19.3125 3.75965,-0.49873 7.82592,-1.65829 9.0625,-2.5625 2.90866,-2.12687 7.5487,-24.16623 5.78125,-27.46875 -0.67955,-1.26975 -4.08824,-3.95722 -7.59375,-5.96875 -22.55583,-12.94296 -24.77417,-32.29455 -5.8125,-50.65625 2.99819,-2.90332 5.4375,-6.02757 5.4375,-6.9375 0,-3.00386 -10.88211,-24.49293 -12.46875,-24.625 -0.85501,-0.0711 -6.71846,-0.0348 -13.03125,0.0937 -13.75038,0.28012 -18.65,-1.44328 -25.46875,-9 -5.91986,-6.56056 -7.36319,-13.57286 -5.4375,-26.6875 0.88185,-6.00509 0.8878,-9.5813 0,-10.6875 -2.02741,-2.52617 -20.37376,-12.34375 -23.0625,-12.34375 -1.29935,0 -5.54659,2.70714 -9.4375,6.03125 -11.64742,9.9507 -21.59616,12.40201 -32.28125,7.9375 -6.99301,-2.92187 -9.27444,-5.37424 -15.28126,-16.3125 -4.68605,-8.53317 -5.77974,-9.6875 -9.15625,-9.6875 z m 3.9375,69.21875 c 9.62718,-0.13752 20.60506,0.85591 26.93751,2.8125 33.91864,10.4802 56.53074,43.14682 54.21875,78.34375 -2.11684,32.22597 -21.88206,58.09974 -52.53125,68.75 -11.23019,3.90237 -31.80576,4.57302 -43.18752,1.4375 -24.63734,-6.78726 -44.69616,-24.81313 -53.49999,-48.09375 -3.46267,-9.1566 -5.22727,-27.74743 -3.71875,-39.1875 1.68842,-12.80451 11.49925,-31.70002 21.71874,-41.84375 8.51437,-8.45124 24.30563,-17.65585 35.5,-20.6875 3.49049,-0.9453 8.7862,-1.44873 14.56251,-1.53125 z m 137.71876,200.25 c -0.26781,0.37491 -0.52707,0.76391 -0.8125,1.125 l 0.8125,0 0,-1.125 z"
       id="path3002"
       inkscape:connector-curvature="0"
       inkscape:export-filename="C:\Users\Jarred\gear1.png"
       inkscape:export-xdpi="27.045135"
       inkscape:export-ydpi="27.045135" />
  </g>
</svg>
