<?xml version="1.0" encoding="UTF-8" standalone="no"?>
<!-- Created with Inkscape (http://www.inkscape.org/) -->

<svg
   xmlns:dc="http://purl.org/dc/elements/1.1/"
   xmlns:cc="http://creativecommons.org/ns#"
   xmlns:rdf="http://www.w3.org/1999/02/22-rdf-syntax-ns#"
   xmlns:svg="http://www.w3.org/2000/svg"
   xmlns="http://www.w3.org/2000/svg"
   xmlns:sodipodi="http://sodipodi.sourceforge.net/DTD/sodipodi-0.dtd"
   xmlns:inkscape="http://www.inkscape.org/namespaces/inkscape"
   width="360.09933"
   height="360.19617"
   id="svg3863"
   version="1.1"
   inkscape:version="0.48.4 r9939"
   sodipodi:docname="gear3.svg">
  <defs
     id="defs3865" />
  <sodipodi:namedview
     id="base"
     pagecolor="#ffffff"
     bordercolor="#666666"
     borderopacity="1.0"
     inkscape:pageopacity="0.0"
     inkscape:pageshadow="2"
     inkscape:zoom="0.7"
     inkscape:cx="233.93101"
     inkscape:cy="119.38443"
     inkscape:document-units="px"
     inkscape:current-layer="layer1"
     showgrid="false"
     inkscape:window-width="705"
     inkscape:window-height="423"
     inkscape:window-x="156"
     inkscape:window-y="156"
     inkscape:window-maximized="0"
     fit-margin-top="0"
     fit-margin-left="0"
     fit-margin-right="0"
     fit-margin-bottom="0" />
  <metadata
     id="metadata3868">
    <rdf:RDF>
      <cc:Work
         rdf:about="">
        <dc:format>image/svg+xml</dc:format>
        <dc:type
           rdf:resource="http://purl.org/dc/dcmitype/StillImage" />
        <dc:title></dc:title>
      </cc:Work>
    </rdf:RDF>
  </metadata>
  <g
     inkscape:label="Layer 1"
     inkscape:groupmode="layer"
     id="layer1"
     transform="translate(-228.52176,-172.2641)">
    <path
       style="fill:#47b2df;fill-opacity:1"
       d="m 377.19801,530.43171 c -14.75615,-2.6665 -14.9191,-2.8055 -16.90579,-14.4198 -5.37598,-31.42832 -25.76838,-42.13443 -54.78234,-28.76103 -6.17303,2.84534 -10.26501,3.9684 -12.45575,3.41856 -3.65838,-0.91819 -23.59416,-21.41579 -23.59416,-24.25906 0,-1.00519 2.19335,-6.8144 4.8741,-12.90936 2.68075,-6.09496 5.1464,-13.49176 5.47922,-16.43731 1.23595,-10.93852 -4.20422,-22.40086 -13.70976,-28.88631 -5.35505,-3.65363 -9.43659,-5.02788 -23.80988,-8.01679 -9.3159,-1.93722 -9.59466,-2.43117 -12.51816,-22.18224 -2.38067,-16.08372 -2.43494,-15.95912 9.55804,-21.93972 14.48581,-7.22373 21.69692,-16.54349 23.06627,-29.81127 0.96875,-9.38621 -3.62304,-19.42047 -13.74137,-30.02847 -9.10328,-9.54384 -9.08362,-10.60834 0.53038,-28.71735 l 6.38063,-12.01862 5.27601,0.27735 c 23.32692,1.22623 28.42158,0.86639 34.89444,-2.46466 13.83987,-7.12225 19.36636,-20.80776 16.54547,-40.97236 -1.1213,-8.01539 -1.15393,-11.64828 -0.11591,-12.89905 1.34945,-1.626 20.50661,-11.42937 27.61825,-14.13322 2.76005,-1.04935 4.22794,-0.25428 10.96454,5.93886 12.45495,11.4502 19.24979,14.8524 29.54611,14.7938 14.44811,-0.0823 23.10212,-6.3791 32.62566,-23.73929 2.74544,-5.00459 5.88236,-9.44104 6.97094,-9.85876 2.46093,-0.94435 29.04532,3.07931 32.47607,4.9154 1.66061,0.88873 3.03429,3.95909 4.04002,9.03001 3.95401,19.93608 8.73065,28.25121 19.3405,33.66781 10.00579,5.10822 19.63211,4.62815 33.81166,-1.6862 6.09496,-2.71418 11.96062,-4.93486 13.03481,-4.93486 2.08822,0 22.66287,19.03442 24.71074,22.86087 0.88931,1.66169 -0.13616,5.1533 -3.74446,12.74946 -3.80367,8.00743 -5.08725,12.54665 -5.47262,19.35307 -0.64598,11.40897 1.28376,17.03355 8.33224,24.28591 6.09874,6.27513 13.22849,9.34271 26.87796,11.56422 4.30273,0.70028 8.56702,2.03701 9.47619,2.9705 1.99383,2.04713 5.84304,21.72173 5.84304,29.86571 0,5.70628 -0.15972,5.91961 -7.01086,9.36484 -18.75491,9.43128 -26.3742,19.25466 -26.3742,34.00365 0,10.64491 2.76594,16.49293 13.32196,28.16659 4.42447,4.89291 8.04448,9.56347 8.04448,10.37901 0,1.96502 -10.28702,22.42632 -13.70788,27.26552 -2.63257,3.72409 -2.88448,3.78722 -11.45181,2.86974 -21.16104,-2.26616 -30.46285,0.0232 -39.1123,9.62644 -7.1637,7.95361 -8.35889,12.95037 -7.30682,30.54771 l 0.89653,14.9956 -3.71938,2.6276 c -4.33875,3.0652 -21.04034,11.5337 -25.44262,12.9006 -2.48112,0.7703 -4.65046,-0.5573 -12.01862,-7.3555 -10.90767,-10.0639 -18.09599,-13.52409 -28.2947,-13.62016 -5.89604,-0.0556 -9.14351,0.77118 -14.5164,3.69546 -7.72422,4.2041 -11.16086,8.1789 -18.29827,21.1638 -4.83672,8.7993 -4.93209,8.8794 -10.43424,8.7607 -3.05411,-0.066 -10.25319,-0.9692 -15.99797,-2.0074 z m 44.6494,-102.05546 c 26.87543,-5.06893 48.83267,-23.26256 58.79954,-48.72089 17.16809,-43.8524 -9.87921,-93.0652 -56.54346,-102.88133 -11.73673,-2.46889 -18.47117,-2.45437 -30.69765,0.0662 -15.37064,3.16873 -28.21654,10.14817 -39.30861,21.35715 -12.12455,12.25236 -18.46,24.55764 -21.51371,41.7859 -2.01578,11.37249 -2.01578,13.22023 0,24.59271 7.60201,42.8886 47.80124,71.62051 89.26389,63.80029 z"
       id="path2998"
       inkscape:connector-curvature="0"
       inkscape:export-filename="C:\Users\Jarred\gear3.png"
       inkscape:export-xdpi="27.045135"
       inkscape:export-ydpi="27.045135" />
  </g>
</svg>
