<?xml version="1.0" encoding="UTF-8" standalone="no"?>
<!-- Created with Inkscape (http://www.inkscape.org/) -->

<svg
   xmlns:dc="http://purl.org/dc/elements/1.1/"
   xmlns:cc="http://creativecommons.org/ns#"
   xmlns:rdf="http://www.w3.org/1999/02/22-rdf-syntax-ns#"
   xmlns:svg="http://www.w3.org/2000/svg"
   xmlns="http://www.w3.org/2000/svg"
   xmlns:sodipodi="http://sodipodi.sourceforge.net/DTD/sodipodi-0.dtd"
   xmlns:inkscape="http://www.inkscape.org/namespaces/inkscape"
   width="292.53125"
   height="291.87524"
   id="svg3837"
   version="1.1"
   inkscape:version="0.48.4 r9939"
   sodipodi:docname="New document 7">
  <defs
     id="defs3839" />
  <sodipodi:namedview
     id="base"
     pagecolor="#ffffff"
     bordercolor="#666666"
     borderopacity="1.0"
     inkscape:pageopacity="0.0"
     inkscape:pageshadow="2"
     inkscape:zoom="0.35"
     inkscape:cx="15.55134"
     inkscape:cy="137.3662"
     inkscape:document-units="px"
     inkscape:current-layer="layer1"
     showgrid="false"
     fit-margin-top="0"
     fit-margin-left="0"
     fit-margin-right="0"
     fit-margin-bottom="0"
     inkscape:window-width="463"
     inkscape:window-height="423"
     inkscape:window-x="104"
     inkscape:window-y="104"
     inkscape:window-maximized="0" />
  <metadata
     id="metadata3842">
    <rdf:RDF>
      <cc:Work
         rdf:about="">
        <dc:format>image/svg+xml</dc:format>
        <dc:type
           rdf:resource="http://purl.org/dc/dcmitype/StillImage" />
        <dc:title></dc:title>
      </cc:Work>
    </rdf:RDF>
  </metadata>
  <g
     inkscape:label="Layer 1"
     inkscape:groupmode="layer"
     id="layer1"
     transform="translate(-359.44866,-377.85312)">
    <path
       style="fill:#61b645"
       d="m 492.51116,377.85337 c -7.37354,-0.0313 -20.84944,2.93341 -23.28125,5.125 -1.38623,1.24929 -3.47412,6.70147 -4.8125,12.65626 -3.7006,16.46478 -11.53031,23.63858 -26,23.84375 -6.0753,0.0861 -9.65817,-0.78903 -16.71875,-4.125 l -9,-4.25 -5.78125,4.71875 c -6.91399,5.6655 -14,14.35374 -14,17.15625 0,1.11368 1.79716,5.84361 4,10.5 4.45138,9.40941 5.2364,18.34025 2.21875,25.5625 -2.39094,5.72233 -10.28596,12.49304 -16.53125,14.1875 -2.76644,0.75059 -8.01133,2.14182 -11.65625,3.09375 -6.08495,1.58918 -6.76205,2.186 -8.15625,7.0625 -0.83515,2.92104 -1.94052,9.33418 -2.4375,14.28125 l -0.90625,9 6.9375,3.6875 c 9.18975,4.90477 17.19327,12.05763 19.40625,17.34375 4.31555,10.30855 1.09295,21.74096 -9.40625,33.5625 l -6.15625,6.96875 2.125,4.96875 c 1.16815,2.73005 2.45079,5.86705 2.875,6.96875 0.42419,1.10171 2.54513,4.58879 4.6875,7.75 l 3.875,5.75 12.25,-0.875 c 10.52851,-0.74803 13.09243,-0.51234 18.375,1.78125 7.31598,3.17645 10.95063,7.47646 13.90625,16.375 1.85416,5.58237 1.9544,8.05342 0.6875,16.21875 -1.44261,9.2978 -1.36614,9.72076 1.53125,11.90625 4.95437,3.7371 19.37716,10.53125 22.375,10.53125 1.53817,0 6.34984,-3.26227 10.6875,-7.25 17.55174,-16.13581 36.00337,-12.68703 46.90625,8.78125 2.10958,4.15385 4.61997,7.87875 5.5625,8.25 0.47126,0.18563 1.10758,0.30339 1.78125,0.34375 l 1,0 c 0.32646,-0.0198 0.66207,-0.0628 0.9375,-0.125 1.10171,-0.24877 5.30416,-0.84132 9.34375,-1.3125 13.16321,-1.53538 15.82407,-2.88095 16.71875,-8.4375 2.27766,-14.1456 3.80348,-18.2115 8.9375,-23.78125 2.89252,-3.13801 7.41388,-6.41745 10.03125,-7.28125 6.61864,-2.18435 17.41012,-0.78696 25.5,3.3125 3.74878,1.89965 7.80944,3.46875 9.03125,3.46875 2.65155,0 20.59375,-17.8858 20.59375,-20.53125 0,-1.01402 -1.50439,-4.52152 -3.34375,-7.8125 -1.83935,-3.29096 -4.04287,-9.38777 -4.875,-13.53125 -1.28175,-6.38236 -1.16843,-8.44541 0.75,-13.46875 4.08689,-10.70136 13.21202,-16.79511 28.46875,-19 3.1135,-0.44996 6.19165,-1.4619 6.84375,-2.28125 1.46607,-1.84209 4.1875,-17.37969 4.1875,-23.90625 0,-4.52805 -0.48126,-5.06964 -8.03125,-9.09375 -12.97682,-6.91658 -20.04165,-16.81124 -19.96875,-27.9375 0.0355,-5.42045 4.69709,-14.17327 11.375,-21.3125 7.34025,-7.84732 7.33663,-8.58591 -0.96875,-23.71875 l -5.46875,-9.90625 -6.8125,1.09375 c -17.36324,2.80119 -27.91588,-0.29172 -34.875,-10.1875 -3.91239,-5.56336 -4.02254,-6.01293 -3.75,-20.1875 l 0.28125,-14.53125 -8.28125,-4.5625 c -4.56032,-2.51027 -10.48638,-5.33898 -13.1875,-6.28125 l -4.9375,-1.68751 -8.15625,7.53126 c -12.83749,11.88525 -25.16018,14.06239 -36,6.34375 -3.98993,-2.84108 -10.78125,-10.75294 -10.78125,-12.5625 0,-0.49184 -1.34744,-2.98001 -3,-5.53126 -2.2913,-3.53736 -3.93459,-4.64365 -6.90625,-4.65625 z m 12.75,68.37501 c 29.75301,-0.0842 59.20859,17.05427 72.25,48.09375 4.67135,11.11817 6.96344,28.49951 5.1875,39.46875 -1.58981,9.8197 -7.16771,24.5276 -12.34375,32.59375 -9.55954,14.89726 -28.75259,27.85335 -47.9375,32.375 -34.0346,8.02153 -71.1575,-10.35354 -86.1875,-42.65625 -13.87295,-29.81601 -7.70891,-64.22859 15.6875,-87.625 15.07707,-15.07708 34.27131,-22.19602 53.34375,-22.25 z"
       id="path3000"
       inkscape:connector-curvature="0"
       inkscape:export-filename="C:\Users\Jarred\gear2.png"
       inkscape:export-xdpi="27.045135"
       inkscape:export-ydpi="27.045135" />
  </g>
</svg>
