<?xml version="1.0" encoding="UTF-8" standalone="no"?>
<svg
   xmlns:dc="http://purl.org/dc/elements/1.1/"
   xmlns:cc="http://creativecommons.org/ns#"
   xmlns:rdf="http://www.w3.org/1999/02/22-rdf-syntax-ns#"
   xmlns:svg="http://www.w3.org/2000/svg"
   xmlns="http://www.w3.org/2000/svg"
   xmlns:sodipodi="http://sodipodi.sourceforge.net/DTD/sodipodi-0.dtd"
   xmlns:inkscape="http://www.inkscape.org/namespaces/inkscape"
   height="1024"
   width="1024"
   id="svg2"
   version="1.1"
   inkscape:version="0.48.4 r9939"
   sodipodi:docname="1404198127_rocket.svg">
  <metadata
     id="metadata10">
    <rdf:RDF>
      <cc:Work
         rdf:about="">
        <dc:format>image/svg+xml</dc:format>
        <dc:type
           rdf:resource="http://purl.org/dc/dcmitype/StillImage" />
        <dc:title></dc:title>
      </cc:Work>
    </rdf:RDF>
  </metadata>
  <defs
     id="defs8" />
  <sodipodi:namedview
     pagecolor="#ffffff"
     bordercolor="#666666"
     borderopacity="1"
     objecttolerance="10"
     gridtolerance="10"
     guidetolerance="10"
     inkscape:pageopacity="0"
     inkscape:pageshadow="2"
     inkscape:window-width="1600"
     inkscape:window-height="837"
     id="namedview6"
     showgrid="false"
     inkscape:zoom="0.23046875"
     inkscape:cx="512"
     inkscape:cy="512"
     inkscape:window-x="-8"
     inkscape:window-y="77"
     inkscape:window-maximized="1"
     inkscape:current-layer="svg2" />
  <path
     d="M716.737 124.05600000000004c-71.926 41.686-148.041 96.13-218.436 166.555-45 45.031-81.213 88.78-110.39 129.778L209.538 453.35 0.047 662.997l186.818 5.815 131.562-131.562c-46.439 96.224-50.536 160.019-50.536 160.019l58.854 58.792c0 0 65.827-6.255 162.737-53.163L355.107 837.119l5.88 186.881 209.585-209.521 33.086-179.252c41.403-29.02 85.185-65.046 129.716-109.545 70.425-70.455 124.837-146.541 166.555-218.466-45.97-9.351-88.125-28.488-121.397-61.668C745.257 212.18100000000004 725.994 170.02499999999998 716.737 124.05600000000004zM786.161 86.84299999999996c5.004 45 19.952 81.274 44.78 105.98 24.769 24.985 60.98 39.902 106.138 44.844C1003.063 104.32299999999998 1023.953 0 1023.953 0S919.63 20.857999999999947 786.161 86.84299999999996z"
     id="path4"
     style="fill:#ffffff" />
</svg>
